# xmcd CD database file
#
# Track frame offsets:
#	150
#	18925
#	28300
#	40899
#	53949
#	74576
#	81986
#	97955
#	116330
#	135980
#	149872
#	169291
#	178338
#
# Disc length: 2450 seconds
#
# Revision: 0
# Processed by: cddbd v1.5PL3 Copyright (c) Steve Scherf et al.
# Submitted via: CDex 1.51
#
DISCID=bf09900d
DTITLE=Brett Larson - All The Way Wrong
DYEAR=2003
DGENRE=Country
TTITLE0=Down At the Corner Bar
TTITLE1=Good Country Song
TTITLE2=Lying to Myself
TTITLE3=Out of My Mind
TTITLE4=Pour Me A Whiskey
TTITLE5=Waltz In The Trailer (inst)
TTITLE6=He Will Take You Back Again
TTITLE7=I'm Still Standing
TTITLE8=Drunk With Love
TTITLE9=Same Mistakes Again
TTITLE10=Waltz In The Trailer
TTITLE11=He Will Take You Back Again (inst)
TTITLE12=Glo In The Dark (Pt 4)
EXTD=YEAR: 2003
EXTT0=
EXTT1=
EXTT2=
EXTT3=
EXTT4=
EXTT5=
EXTT6=
EXTT7=
EXTT8=
EXTT9=
EXTT10=
EXTT11=
EXTT12=
PLAYORDER=
